<?xml version="1.0" encoding="UTF-8"?>
<svg xmlns="http://www.w3.org/2000/svg" viewBox="0 0 415.08 161.7">
  <g>
    <g>
      <g>
        <path fill="#f7a400" d="M80.85,161.7c44.65,0,80.85-36.2,80.85-80.85S125.51,0,80.85,0,0,36.2,0,80.85s36.2,80.85,80.85,80.85Z"/>
        <g>
          <path fill="#ffffff" d="M132.86,96.16c-12.17-7.21-25.38-5.51-29.76-4.66-.93-3.47-1.4-7.05-1.4-10.65s.47-7.12,1.38-10.57c1.82.4,5.17.97,9.39.97,5.83,0,13.28-1.1,20.57-5.28,3.5-2.01,6.36-5.79,7.45-9.88.88-3.3.55-6.53-.95-9.1-3.73-6.43-13.69-7.36-19.76-3.88-12.44,7.14-17.43,19.73-18.76,23.78-3.38-.95-6.63-2.29-9.67-4.06-3.11-1.82-5.95-4.04-8.48-6.59,3.04-3.35,11.15-13.65,11.19-28.03.01-4.04-1.84-8.4-4.83-11.39-2.42-2.41-5.34-3.72-8.35-3.73-7.43.02-13.23,8.18-13.24,15.18-.04,14.26,8.27,24.84,11.17,28.09-2.51,2.49-5.31,4.66-8.39,6.43-3.04,1.76-6.3,3.09-9.69,4.02-1.27-4.13-5.98-16.62-18.53-24.06-3.48-2.06-8.17-2.67-12.27-1.62-3.31.85-5.95,2.74-7.45,5.3-3.76,6.41.34,15.54,6.36,19.11,7.36,4.36,15.1,5.46,21.04,5.46,3.88,0,6.99-.47,8.72-.8.93,3.47,1.4,7.04,1.4,10.65,0,3.57-.47,7.12-1.39,10.57-4.33-.95-17.4-2.9-29.96,4.31-3.5,2-6.36,5.79-7.45,9.88-.88,3.3-.55,6.53.94,9.1,2.32,4,7.07,5.88,11.78,5.88,2.85,0,5.69-.69,7.99-2,12.44-7.14,17.43-19.72,18.76-23.78,3.38.95,6.63,2.29,9.67,4.06,3.12,1.82,5.95,4.04,8.48,6.59-3.03,3.35-11.15,13.65-11.19,28.03,0,4.04,1.84,8.4,4.83,11.39,2.41,2.41,5.36,3.73,8.32,3.73h.03c7.43-.02,13.22-8.18,13.24-15.18.04-14.26-8.27-24.84-11.17-28.09,2.51-2.49,5.31-4.66,8.38-6.44,3.05-1.75,6.31-3.09,9.69-4.02,1.27,4.14,5.98,16.62,18.53,24.06,2.35,1.39,5.26,2.12,8.17,2.12,1.39,0,2.77-.16,4.1-.51,3.31-.85,5.95-2.73,7.45-5.3,3.76-6.42-.33-15.54-6.36-19.11h0ZM121.2,45.59c4.84-2.77,12.99-2.13,15.88,2.83,1.42,2.44,1.14,5.12.65,6.92-.91,3.38-3.25,6.5-6.11,8.15-11.44,6.56-23.69,4.86-27.79,4.01,1.37-3.98,6.16-15.48,17.37-21.92h0ZM80.89,15.95h.02c2.81,0,4.98,1.57,6.3,2.89,2.48,2.48,4.01,6.06,4,9.37-.04,13.19-7.63,22.94-10.41,26.06-2.76-3.19-10.33-13.11-10.3-26,.01-5.57,4.65-12.31,10.39-12.33h0ZM30.3,63.09c-4.79-2.84-8.25-10.26-5.35-15.22,1.43-2.43,3.89-3.51,5.7-3.98,1.11-.28,2.26-.42,3.41-.42,2.39,0,4.77.6,6.69,1.73,11.35,6.73,15.89,18.23,17.17,22.21-4.14.76-16.51,2.26-27.62-4.32h0ZM40.5,116.1c-4.83,2.78-12.99,2.13-15.87-2.83-1.42-2.45-1.14-5.12-.66-6.93.91-3.38,3.25-6.5,6.11-8.14,6.71-3.85,13.71-4.86,19.17-4.86,3.84,0,6.92.5,8.61.84-1.38,3.98-6.19,15.5-17.37,21.91h0ZM80.82,145.75h-.02c-2.82,0-4.98-1.57-6.31-2.89-2.48-2.48-4-6.06-4-9.37.04-13.19,7.64-22.94,10.42-26.06,2.76,3.17,10.33,13.08,10.29,25.99-.01,5.57-4.65,12.32-10.39,12.33h0ZM89.85,96.44c-3.31,1.91-6.35,4.23-9.05,6.92-2.68-2.7-5.71-5.04-9.02-6.96-3.25-1.9-6.74-3.37-10.36-4.38.95-3.64,1.43-7.39,1.43-11.16s-.49-7.57-1.46-11.23c3.66-1,7.17-2.46,10.45-4.35,3.31-1.91,6.35-4.24,9.05-6.92,2.69,2.7,5.72,5.03,9.02,6.96,3.26,1.9,6.74,3.37,10.37,4.38-.95,3.64-1.43,7.4-1.43,11.16s.48,7.56,1.45,11.23c-3.66,1-7.16,2.46-10.45,4.35h0ZM136.76,113.82c-1.43,2.43-3.89,3.51-5.71,3.98-3.39.88-7.26.37-10.1-1.31-11.35-6.72-15.89-18.23-17.17-22.21,4.14-.76,16.51-2.26,27.62,4.32,4.8,2.84,8.25,10.26,5.36,15.22Z"/>
          <path fill="#ffffff" d="M80.83,149.32c-3.18,0-6.31-1.4-8.85-3.94-3.12-3.11-5.05-7.67-5.04-11.89.04-13.84,7.32-23.88,10.93-28-2.4-2.35-5.05-4.37-7.87-6.02-2.72-1.59-5.7-2.87-8.86-3.81-1.57,4.47-6.76,16.58-18.86,23.53-2.36,1.35-5.32,2.1-8.34,2.1-5.5,0-10.13-2.33-12.39-6.22-1.59-2.73-1.95-6.15-1.01-9.64,1.14-4.27,4.12-8.22,7.78-10.31,12.05-6.92,24.41-5.6,29.79-4.52.79-3.2,1.2-6.48,1.2-9.75,0-3.32-.41-6.62-1.22-9.84-1.72.3-4.64.7-8.2.7-7.98,0-15.18-1.87-21.4-5.56-6.3-3.73-10.56-13.31-6.61-20.07,1.6-2.73,4.4-4.73,7.88-5.63,4.27-1.1,9.18-.45,12.81,1.69,12.21,7.24,17.16,19.33,18.64,23.8,3.16-.92,6.14-2.19,8.87-3.77,2.76-1.59,5.38-3.56,7.77-5.86-3.08-3.59-10.94-14.14-10.9-28.05.01-7.33,6.1-15.86,13.94-15.88,3.22,0,6.28,1.37,8.85,3.94,3.12,3.12,5.05,7.68,5.04,11.89-.04,13.85-7.32,23.88-10.92,28,2.4,2.34,5.04,4.37,7.87,6.02,2.74,1.59,5.72,2.87,8.87,3.81,1.57-4.47,6.76-16.59,18.86-23.53,6.35-3.65,16.79-2.64,20.72,4.14,1.59,2.73,1.95,6.15,1.02,9.63-1.14,4.26-4.13,8.21-7.78,10.31-6.21,3.56-13.25,5.37-20.92,5.37-3.71,0-6.79-.44-8.88-.85-.79,3.19-1.19,6.47-1.19,9.75s.41,6.61,1.22,9.84c4.63-.81,17.68-2.2,29.6,4.86h0c6.3,3.73,10.56,13.31,6.61,20.07-1.59,2.73-4.39,4.73-7.88,5.63-4.2,1.08-9.23.43-12.8-1.69-12.22-7.24-17.17-19.33-18.64-23.8-3.15.92-6.13,2.19-8.87,3.77-2.78,1.6-5.39,3.57-7.76,5.86,3.62,4.21,10.94,14.42,10.9,28.05-.02,7.32-6.12,15.86-13.94,15.88ZM60.23,93.94l.65.18c3.52.98,6.82,2.37,9.83,4.13,3.11,1.81,6.01,4.07,8.62,6.71l.47.47-.45.49c-3.3,3.64-10.97,13.62-11.01,27.56,0,3.86,1.77,8.03,4.63,10.89,2.28,2.27,5.06,3.53,7.83,3.53,7.06-.02,12.54-7.8,12.56-14.48.04-14.12-8.4-24.71-10.99-27.62l-.44-.5.47-.47c2.59-2.57,5.46-4.77,8.52-6.55,3.04-1.75,6.35-3.12,9.85-4.09l.66-.18.2.65c1.13,3.69,5.78,16.29,18.22,23.67,3.26,1.93,7.89,2.53,11.73,1.54,3.12-.8,5.62-2.57,7.02-4.98,3.56-6.08-.36-14.75-6.11-18.15h0c-12.11-7.18-25.46-5.31-29.26-4.57l-.64.13-.17-.63c-.95-3.54-1.43-7.19-1.43-10.83s.47-7.24,1.41-10.75l.17-.65.66.14c2,.44,5.24.96,9.24.96,7.42,0,14.22-1.74,20.22-5.19,3.34-1.92,6.07-5.54,7.12-9.45.84-3.12.52-6.16-.88-8.56-3.54-6.09-13.01-6.95-18.8-3.62-12.3,7.06-17.23,19.69-18.44,23.39l-.21.64-.65-.18c-3.5-.98-6.81-2.37-9.83-4.13-3.12-1.82-6.02-4.08-8.62-6.71l-.47-.47.45-.49c3.3-3.63,10.97-13.6,11.01-27.56.01-3.85-1.76-8.03-4.62-10.89-2.3-2.3-5.02-3.52-7.85-3.53-7.04.02-12.52,7.8-12.53,14.48-.04,14.14,8.4,24.72,10.99,27.62l.44.5-.47.47c-2.61,2.58-5.48,4.78-8.53,6.54-3.02,1.75-6.33,3.13-9.85,4.09l-.66.18-.2-.65c-1.13-3.69-5.78-16.29-18.22-23.66-3.32-1.96-7.82-2.56-11.74-1.54-3.12.81-5.61,2.57-7.02,4.98-3.56,6.07.36,14.74,6.11,18.15,6,3.56,12.96,5.36,20.68,5.36,3.94,0,7.07-.5,8.58-.79l.64-.13.17.63c.94,3.53,1.42,7.17,1.43,10.83,0,3.61-.47,7.23-1.41,10.75l-.17.65-.66-.14c-3.75-.82-16.96-2.94-29.46,4.23-3.34,1.91-6.07,5.53-7.12,9.45-.83,3.12-.53,6.16.87,8.57,2.01,3.46,6.18,5.52,11.17,5.52,2.78,0,5.49-.68,7.64-1.91,12.31-7.06,17.23-19.69,18.44-23.39l.21-.64ZM80.82,146.46h-.02c-3.05,0-5.38-1.68-6.8-3.1-2.6-2.6-4.21-6.38-4.2-9.87.04-13.62,8.12-23.75,10.6-26.53l.53-.6.52.6c3.16,3.63,10.5,13.48,10.46,26.46-.02,5.89-4.96,13.02-11.09,13.03ZM80.91,108.51c-2.84,3.36-9.67,12.71-9.71,24.98,0,3.13,1.44,6.52,3.79,8.87,1.23,1.22,3.24,2.69,5.81,2.69l.02.7v-.7c5.35-.01,9.67-6.37,9.68-11.63.03-12.02-6.77-21.5-9.59-24.91ZM127.66,118.93c-2.52,0-5.04-.63-7.06-1.83-11.39-6.75-16.02-18.05-17.48-22.6l-.24-.76.79-.15c4.74-.87,16.95-2.2,28.11,4.41,5.07,3,8.7,10.89,5.6,16.18h0c-1.55,2.64-4.19,3.8-6.14,4.31-1.16.3-2.36.44-3.57.44ZM104.71,94.84c1.45,4.16,6.05,14.79,16.6,21.05,2.69,1.59,6.35,2.06,9.57,1.23,1.68-.44,3.97-1.43,5.28-3.65,2.7-4.62-.59-11.58-5.11-14.25-10.34-6.12-21.96-5.08-26.34-4.37ZM33.94,118.42c-4,0-8.02-1.53-9.92-4.8-1.54-2.65-1.25-5.52-.73-7.46.95-3.55,3.42-6.84,6.44-8.57,5.72-3.29,12.29-4.95,19.52-4.95,3.76,0,6.84.47,8.75.86l.79.16-.26.76c-1.58,4.56-6.48,15.86-17.68,22.29h0c-1.95,1.12-4.43,1.71-6.91,1.71ZM49.26,94.05c-6.98,0-13.31,1.6-18.82,4.76-2.71,1.55-4.93,4.51-5.79,7.71-.45,1.68-.71,4.16.59,6.39,2.69,4.63,10.36,5.19,14.92,2.57h0c10.21-5.86,15-15.96,16.78-20.77-1.86-.34-4.51-.68-7.67-.68ZM80.8,104.35l-.5-.5c-2.64-2.65-5.62-4.96-8.87-6.85-3.18-1.86-6.61-3.31-10.2-4.31l-.67-.19.17-.67c.94-3.59,1.41-7.29,1.41-10.99s-.48-7.45-1.43-11.05l-.18-.68.67-.18c3.6-.98,7.06-2.42,10.28-4.29,3.26-1.88,6.25-4.17,8.9-6.81l.5-.5.5.5c2.64,2.65,5.63,4.96,8.87,6.85,3.2,1.87,6.63,3.32,10.2,4.31l.67.19-.18.67c-.94,3.58-1.41,7.27-1.41,10.98s.48,7.46,1.43,11.05l.18.67-.67.18c-3.59.98-7.05,2.42-10.28,4.29-3.25,1.88-6.24,4.17-8.9,6.81l-.5.5ZM62.27,91.53c3.47,1.02,6.78,2.46,9.87,4.26,3.15,1.83,6.06,4.05,8.66,6.58,2.62-2.52,5.54-4.72,8.69-6.54h0c3.14-1.81,6.48-3.24,9.95-4.24-.87-3.5-1.3-7.11-1.3-10.74s.43-7.19,1.29-10.67c-3.45-1.02-6.77-2.45-9.87-4.26-3.15-1.84-6.06-4.05-8.66-6.58-2.61,2.52-5.53,4.72-8.69,6.54-3.13,1.81-6.47,3.23-9.95,4.24.87,3.51,1.31,7.11,1.31,10.74s-.43,7.18-1.29,10.68ZM112.5,69.07c-3.8,0-6.91-.48-8.8-.87l-.78-.16.26-.76c1.57-4.55,6.44-15.84,17.68-22.3h0c5.11-2.93,13.75-2.2,16.84,3.09,1.54,2.66,1.24,5.52.73,7.46-.95,3.55-3.42,6.84-6.44,8.57-6.83,3.92-13.89,4.97-19.48,4.97ZM104.78,66.98c4.99.91,16.03,1.91,26.5-4.09,2.71-1.56,4.92-4.51,5.78-7.72.45-1.68.71-4.15-.58-6.39-2.69-4.62-10.36-5.19-14.92-2.58h0c-10.42,5.98-15.23,16.62-16.78,20.77ZM49.85,68.84c-5.7,0-13.01-1.05-19.91-5.14h0c-5.06-3-8.69-10.89-5.6-16.18,1.55-2.64,4.19-3.8,6.13-4.3,3.52-.91,7.68-.37,10.64,1.38,11.4,6.76,16.02,18.06,17.48,22.6l.24.76-.79.14c-1.8.33-4.69.73-8.2.73ZM30.66,62.49c10.16,6.02,21.29,5.2,26.34,4.38-1.45-4.16-6.05-14.79-16.6-21.05-2.64-1.56-6.4-2.05-9.57-1.23-1.68.44-3.97,1.43-5.27,3.65-2.7,4.62.58,11.57,5.1,14.26h0ZM80.79,55.34l-.52-.61c-3.16-3.65-10.5-13.53-10.47-26.46.01-5.89,4.97-13.02,11.09-13.03h.02c3.06,0,5.39,1.68,6.8,3.1,2.61,2.61,4.22,6.39,4.2,9.87-.04,13.23-7.42,22.96-10.59,26.53l-.53.6ZM80.89,15.95v.7c-5.35.01-9.67,6.37-9.69,11.63-.03,11.78,6.33,20.97,9.6,24.91,3.29-3.86,9.67-12.92,9.7-24.99.01-3.12-1.44-6.52-3.79-8.87-1.23-1.23-3.23-2.69-5.8-2.69l-.02-.7Z"/>
        </g>
      </g>
      <g>
        <g>
          <path fill="#004566" d="M197.62,37.14c.43-1.12,1.61-1.93,2.84-1.93s2.41.8,2.84,1.93l12.9,32.66c.54,1.39-.05,2.84-1.45,3.37-.32.11-.7.22-1.02.22-1.02,0-1.87-.59-2.3-1.66l-2.62-6.91h-16.7l-2.62,6.91c-.43,1.07-1.28,1.66-2.3,1.66-.32,0-.7-.11-1.02-.22-1.39-.54-1.98-1.98-1.45-3.37l12.9-32.66ZM207.04,60.21l-6.58-17.24-6.58,17.24h13.17Z"/>
          <path fill="#004566" d="M227.01,37.73c0-1.45,1.07-2.52,2.57-2.52.8,0,1.5.32,1.93.86l15.58,15.58,15.58-15.58c.48-.54,1.18-.86,1.98-.86,1.45,0,2.52,1.07,2.52,2.52v33.08c0,1.45-1.07,2.52-2.57,2.52s-2.52-1.07-2.52-2.52v-27.19l-13.28,13.28c-.48.48-1.07.7-1.71.7s-1.23-.21-1.71-.7l-13.28-13.28v27.19c0,1.45-1.07,2.52-2.57,2.52s-2.52-1.07-2.52-2.52v-33.08Z"/>
          <path fill="#004566" d="M281.08,37.99c0-1.45,1.02-2.46,2.46-2.46h10.06c6.26,0,12.47,2.2,12.47,9.9,0,3.8-1.93,6.26-4.6,7.76,3.69,1.55,6.48,4.39,6.48,9.21,0,8.19-6.69,10.6-13.44,10.6h-10.97c-1.45,0-2.46-1.02-2.46-2.46v-32.55ZM286.22,40.03v11.46h7.28c3.8,0,7.44-1.34,7.44-5.73s-3.64-5.73-7.44-5.73h-7.28ZM286.22,68.51h8.19c4.28,0,8.41-1.5,8.41-6.42s-4.12-6.42-8.41-6.42h-8.19v12.85Z"/>
          <path fill="#004566" d="M324.88,56.25v12.15h16.43c1.28,0,2.3.96,2.3,2.3s-1.02,2.3-2.3,2.3h-18.95c-1.5,0-2.57-1.07-2.57-2.57v-32.33c0-1.5,1.07-2.57,2.57-2.57h18.31c1.28,0,2.3.96,2.3,2.3s-1.02,2.3-2.3,2.3h-15.79v11.62h14.56c1.29,0,2.25.91,2.25,2.25s-.96,2.25-2.25,2.25h-14.56Z"/>
          <path fill="#004566" d="M355.55,38.1c0-1.5,1.07-2.57,2.57-2.57h10.76c6.8,0,13.44,2.57,13.44,11.08,0,6.69-4.12,9.69-9.21,10.6l7.76,12.31c.75,1.23.43,2.62-.8,3.43-.48.27-.96.43-1.39.43-.8,0-1.55-.43-2.03-1.18l-9.21-14.62h-6.8v13.22c0,1.45-1.07,2.52-2.57,2.52s-2.52-1.07-2.52-2.52v-32.71ZM360.64,40.14v12.96h8.19c4.28,0,8.4-1.55,8.4-6.48s-4.12-6.48-8.4-6.48h-8.19Z"/>
        </g>
        <g>
          <path fill="#004566" d="M199.93,91.93c6.8,0,13.44,2.46,13.44,11.08s-6.64,11.08-13.44,11.08h-8.24v13.06c0,1.5-1.07,2.57-2.57,2.57s-2.57-1.07-2.57-2.57v-32.66c0-1.5,1.07-2.57,2.57-2.57h10.81ZM191.68,96.53v12.96h8.19c4.28,0,8.41-1.55,8.41-6.48s-4.12-6.48-8.41-6.48h-8.19Z"/>
          <path fill="#004566" d="M229.64,124.74h14.67c1.34,0,2.3.96,2.3,2.36s-.96,2.3-2.3,2.3h-17.24c-1.5,0-2.57-1.07-2.57-2.57v-32.66c0-1.45,1.07-2.57,2.57-2.57s2.57,1.12,2.57,2.57v30.57Z"/>
          <path fill="#004566" d="M266.53,93.53c.43-1.12,1.61-1.93,2.84-1.93s2.41.8,2.84,1.93l12.9,32.66c.54,1.39-.05,2.84-1.45,3.37-.32.11-.7.22-1.02.22-1.02,0-1.87-.59-2.3-1.66l-2.62-6.91h-16.7l-2.62,6.91c-.43,1.07-1.28,1.66-2.3,1.66-.32,0-.7-.11-1.02-.22-1.39-.54-1.98-1.98-1.45-3.37l12.9-32.66ZM275.95,116.61l-6.58-17.24-6.58,17.24h13.17Z"/>
          <path fill="#004566" d="M315.84,119.02c0-9.69-21.41-1.77-21.41-16.6,0-7.55,6.85-11.08,12.85-11.08,3.91,0,7.23.96,10.28,3.27.96.7,1.18,2.14.48,3.16-.43.59-1.12.91-1.82.91-.48,0-.91-.11-1.34-.43-2.3-1.61-4.76-2.36-7.6-2.36-3.59,0-7.76,2.03-7.76,6.42,0,9.69,21.41,1.77,21.41,16.6,0,7.71-7.01,11.08-13.49,11.08-4.76,0-9.21-1.55-12.53-4.93-.91-.96-1.02-2.46-.05-3.48.43-.48,1.07-.7,1.66-.7.64,0,1.28.21,1.77.7,2.73,2.62,5.73,3.85,9.15,3.85,4.02,0,8.4-1.93,8.4-6.42Z"/>
          <path fill="#004566" d="M332.43,94.12c0-1.45,1.07-2.52,2.57-2.52.8,0,1.5.32,1.93.86l15.58,15.58,15.58-15.58c.48-.54,1.18-.86,1.98-.86,1.45,0,2.52,1.07,2.52,2.52v33.08c0,1.45-1.07,2.52-2.57,2.52s-2.52-1.07-2.52-2.52v-27.19l-13.28,13.28c-.48.48-1.07.7-1.71.7s-1.23-.22-1.71-.7l-13.28-13.28v27.19c0,1.45-1.07,2.52-2.57,2.52s-2.52-1.07-2.52-2.52v-33.08Z"/>
          <path fill="#004566" d="M396.3,93.53c.43-1.12,1.61-1.93,2.84-1.93s2.41.8,2.84,1.93l12.9,32.66c.54,1.39-.05,2.84-1.45,3.37-.32.11-.7.22-1.02.22-1.02,0-1.87-.59-2.3-1.66l-2.62-6.91h-16.7l-2.62,6.91c-.43,1.07-1.28,1.66-2.3,1.66-.32,0-.7-.11-1.02-.22-1.39-.54-1.98-1.98-1.45-3.37l12.9-32.66ZM405.73,116.61l-6.58-17.24-6.58,17.24h13.17Z"/>
        </g>
      </g>
    </g>
  </g>
</svg>