<svg id="Vrstva_1" xmlns="http://www.w3.org/2000/svg" viewBox="0 0 126.3 53.7"><defs><style>
      .st0 {
        fill: #a82f53;
      }

      .st1 {
        fill: #eea942;
      }

      .st2 {
        fill: #194564;
      }
    </style></defs><path class="st2" d="M43.4,40.6c-.8,0-1.5-.7-1.5-1.5v-2.3c0-5-3.7-9-8.3-9h-7.4c-4.6,0-8.3,4.1-8.3,9v2.3c0,.8-.6,1.5-1.5,1.5s-1.5-.7-1.5-1.5v-2.3c0-6.6,5-11.9,11.2-11.9h7.4c6.2,0,11.2,5.4,11.2,11.9v2.3c0,.8-.6,1.5-1.5,1.5Z"></path><path class="st2" d="M29.9,23.3c-4.7,0-8.6-3.8-8.6-8.6s3.8-8.6,8.6-8.6,8.6,3.8,8.6,8.6-3.8,8.6-8.6,8.6ZM29.9,9.1c-3.1,0-5.7,2.5-5.7,5.7s2.5,5.7,5.7,5.7,5.7-2.5,5.7-5.7-2.5-5.7-5.7-5.7Z"></path><path class="st1" d="M29.5,53.7c-14.8,0-26.8-12-26.8-26.8S14.7,0,29.5,0s26.8,12,26.8,26.8-12,26.8-26.8,26.8ZM29.5,2.9C16.3,2.9,5.6,13.6,5.6,26.8s10.7,23.9,23.9,23.9,23.9-10.7,23.9-23.9S42.7,2.9,29.5,2.9Z"></path><path class="st0" d="M29.9,47.7c-.3,0-.6-.1-.9-.3-.1,0-.2-.2-.3-.2-2.8-1.9-4.9-3.9-6.5-6.1-1.5-2.1-1.8-4.4-.9-6.6.8-2,2.6-3.3,4.7-3.4,1.6,0,2.9.5,3.9,1.5,1.1-1.2,2.6-1.7,4.4-1.5,1.9.2,3.4,1.4,4.2,3.2.9,2.1.7,4.3-.6,6.4,0,0,0,0,0,0-1.2,1.8-2.7,3.2-4.2,4.5-.7.6-1.5,1.2-2.4,1.8-.1.1-.2.2-.3.2-.3.2-.6.4-1,.4h0ZM26.3,33.9c0,0-.1,0-.2,0-1,0-1.8.6-2.1,1.5-.5,1.3-.3,2.6.6,3.9,1.3,1.8,3.1,3.5,5.4,5.1.7-.5,1.3-1,1.8-1.4,1.6-1.3,2.8-2.5,3.7-3.9,0,0,0,0,0,0,.8-1.2.9-2.4.4-3.7-.4-.9-1-1.4-1.9-1.5-1.3-.1-1.9.4-2.2.9-.1.2-.2.4-.4.7,0,.1-.2.3-.2.4-.3.5-.8.8-1.3.7-.5,0-1-.3-1.3-.8,0,0,0-.2-.1-.3v-.2c-.7-1.3-1.7-1.5-2.2-1.5h0Z"></path><path class="st2" d="M68.3,8.6c3,0,5.8,1,5.8,4.8s-2.9,4.8-5.8,4.8h-2v3.6c0,.9-.7,1.6-1.6,1.6s-1.6-.7-1.6-1.6v-11.5c0-.9.7-1.6,1.6-1.6h3.6ZM66.3,11.5v3.9h2c1.4,0,2.6-.5,2.6-1.9s-1.2-1.9-2.6-1.9h-2Z"></path><path class="st2" d="M80.8,12.5c3.2,0,5.7,2.3,5.7,5.5s-2.5,5.5-5.7,5.5-5.7-2.3-5.7-5.5,2.5-5.5,5.7-5.5ZM80.8,15.4c-1.5,0-2.5,1.2-2.5,2.6s1,2.6,2.5,2.6,2.5-1.2,2.5-2.6-1-2.6-2.5-2.6Z"></path><path class="st2" d="M88.1,14.1c0-.9.7-1.5,1.6-1.5s1.6.6,1.6,1.5v.2c.2-.8.9-1.9,2.6-1.9s2.4.7,2,2c-.2.8-1,1.3-1.9,1.1-.3,0-.6,0-.7,0-1.1,0-2.1.7-2.1,2.1v4.2c0,.9-.7,1.5-1.6,1.5s-1.5-.6-1.5-1.5v-7.7h0Z"></path><path class="st2" d="M98.2,12.8v-1.6c0-.9.7-1.5,1.6-1.5s1.5.6,1.5,1.5v1.6h1c.8,0,1.4.6,1.4,1.5s-.6,1.4-1.4,1.4h-1v6.1c0,.9-.7,1.5-1.6,1.5s-1.5-.6-1.5-1.5v-6.1h-.6c-.8,0-1.4-.6-1.4-1.5s.6-1.4,1.4-1.4h.6Z"></path><path class="st2" d="M109.6,23.5c-2.9,0-4.9-2.3-4.9-5.5s2.1-5.5,4.9-5.5,2.6.5,3.4,1.5c0-.8.7-1.4,1.5-1.4s1.6.6,1.6,1.5v7.7c0,.9-.7,1.5-1.6,1.5s-1.5-.6-1.5-1.4c-.9.9-2.1,1.5-3.4,1.5ZM110.4,15.3c-1.5,0-2.6,1.2-2.6,2.7s1.1,2.7,2.6,2.7,2.6-1.2,2.6-2.7-1.1-2.7-2.6-2.7ZM110.9,7.8c.3-.4.6-.6,1-.6s.5,0,.7.2c.6.4.8,1.1.4,1.7l-1.1,1.8c-.2.4-.6.6-1,.6s-.5,0-.7-.2c-.6-.4-.8-1.1-.4-1.7l1.1-1.8h0Z"></path><path class="st2" d="M118.2,10c0-.9.7-1.5,1.6-1.5s1.5.6,1.5,1.5v11.9c0,.9-.7,1.5-1.6,1.5s-1.5-.6-1.5-1.5v-11.9Z"></path><path class="st2" d="M73.8,28.7v11.9c0,.9-.7,1.5-1.6,1.5s-1.5-.6-1.5-1.4c-.9.9-2.1,1.5-3.5,1.5-2.9,0-4.9-2.3-4.9-5.5s2.1-5.5,4.9-5.5,2.6.5,3.4,1.4v-4c0-.9.7-1.5,1.6-1.5s1.6.6,1.6,1.5h0ZM68.1,34.1c-1.5,0-2.6,1.2-2.6,2.7s1.1,2.7,2.6,2.7,2.6-1.2,2.6-2.7-1.1-2.7-2.6-2.7Z"></path><path class="st2" d="M80.4,42.2c-2.9,0-4.9-2.3-4.9-5.5s2.1-5.5,4.9-5.5,2.6.5,3.5,1.5c0-.8.7-1.4,1.5-1.4s1.6.6,1.6,1.5v7.7c0,.9-.7,1.5-1.6,1.5s-1.5-.6-1.5-1.4c-.9.9-2.1,1.5-3.5,1.5h0ZM81.2,34.1c-1.5,0-2.6,1.2-2.6,2.7s1.1,2.7,2.6,2.7,2.6-1.2,2.6-2.7-1.1-2.7-2.6-2.7ZM81.7,26.5c.3-.4.6-.6,1-.6s.5,0,.7.2c.6.4.8,1.1.4,1.7l-1.1,1.8c-.2.4-.6.6-1,.6s-.5,0-.7-.2c-.6-.4-.8-1.1-.4-1.7l1.1-1.8h0Z"></path><path class="st2" d="M89,32.9c0-.9.7-1.5,1.6-1.5s1.6.6,1.6,1.5v.2c.2-.8.9-1.9,2.6-1.9s2.4.7,2,2c-.2.8-1,1.3-1.9,1.1-.3,0-.6,0-.7,0-1.1,0-2.1.7-2.1,2.1v4.2c0,.9-.7,1.5-1.6,1.5s-1.5-.6-1.5-1.5v-7.7h0Z"></path><path class="st2" d="M97.2,36.7c0-3.2,2.4-5.5,5.7-5.5s3.4.9,4.4,2c.5.6.4,1.6-.2,2.1-.3.2-.6.3-.9.3s-.9-.2-1.2-.6c-.4-.5-1.2-1-2.1-1-1.4,0-2.5,1-2.5,2.6s1.1,2.6,2.5,2.6,1.6-.4,2.1-1c.3-.4.7-.6,1.2-.6s.6.1.9.3c.6.5.8,1.5.2,2.1-.9,1.2-2.6,2-4.4,2-3.3,0-5.7-2.3-5.7-5.5Z"></path><path class="st2" d="M111.8,37.5c.2,1.3,1.2,2.1,2.5,2.1s1.7-.3,2.3-.7c.2-.1.5-.2.7-.2.4,0,.8.2,1.1.6.4.6.2,1.4-.4,1.9-1,.7-2.3,1.1-3.8,1.1-3.2,0-5.6-2.3-5.6-5.5s2.3-5.5,5.4-5.5,5,1.9,5.4,4.7c.1.9-.6,1.6-1.5,1.6h-6.2ZM114.1,33.7c-1.1,0-2.1.7-2.3,2h4.7c-.2-1.2-1.2-2-2.3-2h0Z"></path></svg>